# xmcd
#
# Track frame offsets:
#	150
#	12541
#	25232
#	35180
#	46821
#	56746
#	67243
#	78042
#	89755
#	99737
#	110396
#	120225
#	129735
#	141676
#	151040
#	161349
#	170207
#	180900
#	191620
#	200359
#	211845
#	223185
#	233868
#	245386
#	256624
#
# Disc length: 3582 seconds
#
# Revision: 3
# Processed by: cddbd v1.5.2PL0 Copyright (c) Steve Scherf et al.
# Submitted via: EasyCDDAExtractor 16.1.0.1
#
DISCID=640dfc19
DTITLE=Patsy Cline - Crazy Disc 1
DYEAR=2012
DGENRE=Country
TTITLE0=Crazy
TTITLE1=I Fall To Pieces
TTITLE2=Have You Ever Been Lonely
TTITLE3=Walkin' After Midnight
TTITLE4=Foolin' Around
TTITLE5=Lovesick Blues
TTITLE6=San Antonio Rose
TTITLE7=Never No More
TTITLE8=Seven Lonely Days
TTITLE9=Gotta Lotta Rhythm In My Soul
TTITLE10=I'm Blue Again
TTITLE11=I'm Moving Along
TTITLE12=If I Could Stay Asleep
TTITLE13=Love, Love, Love Me, Honey
TTITLE14=How Can I Face Tomorrow
TTITLE15=Try Again
TTITLE16=Honky Tonk Merry Go Around
TTITLE17=I Can See An Angel
TTITLE18=Ain't No Wheels On Tjis Ship
TTITLE19=The Heart That You Break May Be Youe Own
TTITLE20=Just Out Of Reach
TTITLE21=Stop, Look And Listen
TTITLE22=In Care Of The Blues
TTITLE23=That Wonderful Someone
TTITLE24=Today, Tomorrow And Forever
EXTD=
EXTT0=
EXTT1=
EXTT2=
EXTT3=
EXTT4=
EXTT5=
EXTT6=
EXTT7=
EXTT8=
EXTT9=
EXTT10=
EXTT11=
EXTT12=
EXTT13=
EXTT14=
EXTT15=
EXTT16=
EXTT17=
EXTT18=
EXTT19=
EXTT20=
EXTT21=
EXTT22=
EXTT23=
EXTT24=
PLAYORDER=
